<?xml version="1.0" encoding="UTF-8" standalone="no"?>
<svg
   width="500"
   height="417"
   version="1.1"
   id="svg1"
   xmlns="http://www.w3.org/2000/svg"
   viewBox="0 0 500 417"
   xmlns:svg="http://www.w3.org/2000/svg">
  <text
     text-anchor="middle"
     x="250"
     y="278.26498"
     id="text1"
     font-size="40pt"
     font-weight="bolder"
     fill="#000f"
     style="font-size:40.2863px;stroke-width:0.951612">{{ data.0 }}</text>
  <path
     style="fill:none;stroke:#ff0000;stroke-width:0.951612;stroke-opacity:1"
     d="M 215.43631,413.18812 C 142.61363,394.64129 92.445799,331.59609 92.587555,258.80577 c 0.03287,-16.92981 4.018336,-41.05787 8.855005,-53.60965 1.49416,-3.87751 -0.0422,-4.3998 -13.019654,-4.4261 C 41.930104,200.67575 9.4715793,174.47358 1.7840099,130.83054 -5.1852309,91.265507 16.202673,46.82179 54.367629,21.562613 78.224052,5.7734293 91.936172,1.470354 118.92814,1.3025181 c 51.9835,-1.90862891 85.42698,43.7336139 85.3019,84.0957979 l -0.1118,21.613174 15.18468,-3.26083 c 23.09211,-4.95893 53.00584,-3.808073 74.22041,2.85546 3.15954,0.99241 3.78028,-2.56536 3.84309,-22.023844 0.059,-18.220516 1.22529,-25.731511 5.42857,-34.953497 C 310.34717,33.058921 326.82433,16.188298 343.41112,8.0427756 398.90581,-16.90144 472.77506,23.000404 494.657,81.325473 c 5.94166,16.905205 6.52205,48.826197 1.16372,64.013187 -12.02619,34.08586 -51.5866,58.83653 -87.28423,54.60867 -6.608,-0.78261 -11.99992,-1.19358 -11.98213,-0.91326 0.0172,0.28034 2.27882,7.67586 5.02432,16.43451 7.08028,22.58694 6.94924,63.81896 -0.27777,87.43726 -8.57241,28.01485 -19.33371,45.66322 -41.16969,67.51768 -20.52094,20.53839 -38.89248,31.80652 -65.78512,40.34915 -17.33533,5.50666 -61.46824,6.85758 -78.90986,2.41545 z"
     id="path3444" />
</svg>
